<svg xmlns="http://www.w3.org/2000/svg" xmlns:xlink="http://www.w3.org/1999/xlink" width="1920" zoomAndPan="magnify" viewBox="0 0 1440 809.999993" height="1080" preserveAspectRatio="xMidYMid meet" version="1.0"><defs><g/><clipPath id="67a0a126cf"><rect x="0" width="1432" y="0" height="605"/></clipPath></defs><rect x="-144" width="1728" fill="#ffffff" y="-80.999999" height="971.999992" fill-opacity="1"/><rect x="-144" width="1728" fill="#121a2d" y="-80.999999" height="971.999992" fill-opacity="1"/><g transform="matrix(1, 0, 0, 1, 0, 70)"><g clip-path="url(#67a0a126cf)"><g fill="#fffefd" fill-opacity="1"><g transform="translate(-10.990193, 407.915892)"><g><path d="M 299.5625 -34.875 L 311.421875 -26.21875 C 315.828125 -22.875 319.09375 -18.84375 321.21875 -14.125 C 323.351562 -9.414062 322.820312 -4.707031 319.625 0 L 274.484375 67.703125 C 272.960938 70.140625 271.289062 72.421875 269.46875 74.546875 C 267.644531 76.671875 265.289062 78.113281 262.40625 78.875 C 259.664062 79.789062 256.890625 80.550781 254.078125 81.15625 C 251.265625 81.769531 248.34375 82.378906 245.3125 82.984375 C 166.726562 97.117188 104.71875 91.34375 59.28125 65.65625 C 46.664062 58.507812 37.46875 49.578125 31.6875 38.859375 C 25.914062 28.148438 22.914062 16.335938 22.6875 3.421875 C 22.457031 -9.492188 24.429688 -23.019531 28.609375 -37.15625 C 32.785156 -51.289062 38.484375 -65.5 45.703125 -79.78125 C 52.921875 -94.070312 61.128906 -107.90625 70.328125 -121.28125 C 79.523438 -134.65625 88.910156 -146.890625 98.484375 -157.984375 C 102.285156 -162.085938 105.59375 -164.210938 108.40625 -164.359375 C 111.21875 -164.515625 112.8125 -163.222656 113.1875 -160.484375 C 113.570312 -157.753906 111.785156 -153.957031 107.828125 -149.09375 C 98.710938 -138 90.925781 -126.5625 84.46875 -114.78125 C 78.007812 -103.007812 73.066406 -91.382812 69.640625 -79.90625 C 66.222656 -68.425781 64.703125 -57.554688 65.078125 -47.296875 C 65.460938 -37.046875 67.9375 -27.96875 72.5 -20.0625 C 75.539062 -14.738281 80.894531 -10.140625 88.5625 -6.265625 C 96.238281 -2.390625 105.28125 0.796875 115.6875 3.296875 C 126.101562 5.804688 137.007812 7.742188 148.40625 9.109375 C 159.8125 10.484375 170.832031 11.285156 181.46875 11.515625 C 192.113281 11.742188 201.5 11.476562 209.625 10.71875 C 217.757812 9.957031 223.726562 8.816406 227.53125 7.296875 C 223.425781 5.171875 218.863281 2.628906 213.84375 -0.328125 C 208.832031 -3.296875 203.894531 -6.601562 199.03125 -10.25 C 194.164062 -13.90625 189.984375 -17.894531 186.484375 -22.21875 C 182.992188 -26.550781 180.710938 -31.222656 179.640625 -36.234375 C 178.578125 -41.253906 179.335938 -46.578125 181.921875 -52.203125 C 183.898438 -56.003906 186.941406 -61.320312 191.046875 -68.15625 C 195.148438 -75 199.554688 -82.070312 204.265625 -89.375 C 206.242188 -92.40625 208.828125 -94.222656 212.015625 -94.828125 C 215.210938 -95.441406 218.253906 -94.6875 221.140625 -92.5625 L 252.140625 -69.765625 L 299.5625 -69.765625 Z M 104.421875 133.828125 L 212.015625 124.015625 C 213.390625 123.867188 214.414062 124.328125 215.09375 125.390625 C 215.78125 126.453125 215.742188 127.59375 214.984375 128.8125 L 179.640625 184.890625 L 72.5 194.6875 C 71.132812 194.84375 70.144531 194.347656 69.53125 193.203125 C 68.925781 192.066406 68.925781 190.96875 69.53125 189.90625 Z M 104.421875 133.828125 "/></g></g></g><g fill="#fffefd" fill-opacity="1"><g transform="translate(284.005669, 407.915892)"><g><path d="M 128.359375 -188.078125 L 21.203125 -178.28125 C 19.835938 -178.125 18.847656 -178.613281 18.234375 -179.75 C 17.628906 -180.894531 17.628906 -182 18.234375 -183.0625 L 53.125 -239.15625 L 160.71875 -248.953125 C 162.09375 -249.109375 163.117188 -248.648438 163.796875 -247.578125 C 164.484375 -246.515625 164.445312 -245.378906 163.6875 -244.171875 Z M 29.1875 0 L -54.03125 0 L -52.4375 -6.15625 L -5.015625 -67.25 L 0 -69.765625 L 77.515625 -69.765625 C 84.503906 -69.765625 90.390625 -71.550781 95.171875 -75.125 C 99.960938 -78.695312 103.992188 -83.519531 107.265625 -89.59375 C 110.535156 -95.675781 113.5 -102.550781 116.15625 -110.21875 C 118.8125 -117.894531 121.585938 -125.835938 124.484375 -134.046875 C 124.785156 -135.265625 125.503906 -136.140625 126.640625 -136.671875 C 127.785156 -137.203125 128.890625 -137.316406 129.953125 -137.015625 L 137.46875 -134.96875 C 140.351562 -134.207031 141.414062 -132.226562 140.65625 -129.03125 C 136.863281 -115.351562 133.179688 -102.171875 129.609375 -89.484375 C 126.035156 -76.796875 121.851562 -65.015625 117.0625 -54.140625 C 112.28125 -43.273438 106.238281 -33.8125 98.9375 -25.75 C 91.644531 -17.695312 82.375 -11.390625 71.125 -6.828125 C 59.882812 -2.273438 45.90625 0 29.1875 0 Z M 29.1875 0 "/></g></g></g><g fill="#fffefd" fill-opacity="1"><g transform="translate(447.689617, 407.915892)"><g><path d="M 3.640625 118.546875 C 2.128906 118.546875 1.066406 118.015625 0.453125 116.953125 C -0.148438 115.890625 -0.0703125 114.828125 0.6875 113.765625 L 46.046875 45.375 C 58.210938 44.457031 70.90625 43.582031 84.125 42.75 C 97.34375 41.914062 110.445312 40.773438 123.4375 39.328125 C 136.4375 37.878906 148.75 35.9375 160.375 33.5 C 172.007812 31.070312 182.347656 27.957031 191.390625 24.15625 C 200.429688 20.363281 207.535156 15.617188 212.703125 9.921875 C 217.867188 4.222656 220.453125 -2.65625 220.453125 -10.71875 L 220.453125 -46.515625 C 220.453125 -53.191406 222.65625 -58.734375 227.0625 -63.140625 C 231.46875 -67.554688 237.015625 -69.765625 243.703125 -69.765625 L 303.890625 -69.765625 L 251 0 C 251 17.9375 248.335938 33.328125 243.015625 46.171875 C 237.703125 59.015625 230.257812 69.765625 220.6875 78.421875 C 211.113281 87.085938 199.90625 94.039062 187.0625 99.28125 C 174.21875 104.53125 160.347656 108.519531 145.453125 111.25 C 130.554688 113.988281 115.050781 115.851562 98.9375 116.84375 C 82.832031 117.832031 66.722656 118.363281 50.609375 118.4375 C 34.503906 118.507812 18.847656 118.546875 3.640625 118.546875 Z M 3.640625 118.546875 "/></g></g></g><g fill="#fffefd" fill-opacity="1"><g transform="translate(749.524686, 407.915892)"><g><path d="M 210.203125 -271.296875 L 79.109375 -231.859375 C 75.921875 -230.941406 73.488281 -231.242188 71.8125 -232.765625 C 70.144531 -234.285156 69.914062 -236.71875 71.125 -240.0625 L 98.484375 -308.90625 L 229.125 -348.359375 C 234.75 -350.023438 238.8125 -350.171875 241.3125 -348.796875 C 243.820312 -347.429688 244.46875 -345.382812 243.25 -342.65625 Z M 200.171875 0 L -54.03125 0 L -52.4375 -6.15625 L -5.015625 -67.25 L 0 -69.765625 L 134.96875 -69.765625 L 31.46875 -150.234375 C 29.1875 -151.148438 28.269531 -152.59375 28.71875 -154.5625 C 29.175781 -156.539062 29.863281 -158.289062 30.78125 -159.8125 L 59.734375 -213.609375 C 61.097656 -216.203125 63.375 -217.800781 66.5625 -218.40625 C 69.757812 -219.007812 72.570312 -218.328125 75 -216.359375 L 231.859375 -88.90625 C 233.984375 -88 234.664062 -86.707031 233.90625 -85.03125 C 233.144531 -83.363281 232.535156 -81.921875 232.078125 -80.703125 Z M 200.171875 0 "/></g></g></g><g fill="#fffefd" fill-opacity="1"><g transform="translate(1016.251996, 407.915892)"><g><path d="M 165.28125 -233.671875 L 131.09375 -270.15625 C 130.175781 -271.21875 130.175781 -272.207031 131.09375 -273.125 L 187.171875 -325.328125 C 188.234375 -326.390625 189.222656 -326.390625 190.140625 -325.328125 L 224.5625 -288.84375 C 225.46875 -287.78125 225.390625 -286.71875 224.328125 -285.65625 L 168.484375 -233.671875 C 167.410156 -232.609375 166.34375 -232.609375 165.28125 -233.671875 Z M 165.96875 0 L 2.28125 0 L 3.875 -6.15625 L 51.296875 -67.25 L 56.3125 -69.765625 L 168.9375 -69.765625 L 151.375 -129.5 L 199.25 -196.75 C 199.707031 -197.507812 200.273438 -197.8125 200.953125 -197.65625 C 201.640625 -197.507812 202.0625 -197.054688 202.21875 -196.296875 L 233.90625 -69.765625 L 249.859375 -69.765625 L 249.859375 -68.84375 L 196.96875 0 L 193.78125 0 L 186.484375 -29.1875 Z M 165.96875 0 "/></g></g></g><g fill="#fffefd" fill-opacity="1"><g transform="translate(1264.057616, 407.915892)"><g><path d="M 128.359375 -188.078125 L 21.203125 -178.28125 C 19.835938 -178.125 18.847656 -178.613281 18.234375 -179.75 C 17.628906 -180.894531 17.628906 -182 18.234375 -183.0625 L 53.125 -239.15625 L 160.71875 -248.953125 C 162.09375 -249.109375 163.117188 -248.648438 163.796875 -247.578125 C 164.484375 -246.515625 164.445312 -245.378906 163.6875 -244.171875 Z M 29.1875 0 L -54.03125 0 L -52.4375 -6.15625 L -5.015625 -67.25 L 0 -69.765625 L 77.515625 -69.765625 C 84.503906 -69.765625 90.390625 -71.550781 95.171875 -75.125 C 99.960938 -78.695312 103.992188 -83.519531 107.265625 -89.59375 C 110.535156 -95.675781 113.5 -102.550781 116.15625 -110.21875 C 118.8125 -117.894531 121.585938 -125.835938 124.484375 -134.046875 C 124.785156 -135.265625 125.503906 -136.140625 126.640625 -136.671875 C 127.785156 -137.203125 128.890625 -137.316406 129.953125 -137.015625 L 137.46875 -134.96875 C 140.351562 -134.207031 141.414062 -132.226562 140.65625 -129.03125 C 136.863281 -115.351562 133.179688 -102.171875 129.609375 -89.484375 C 126.035156 -76.796875 121.851562 -65.015625 117.0625 -54.140625 C 112.28125 -43.273438 106.238281 -33.8125 98.9375 -25.75 C 91.644531 -17.695312 82.375 -11.390625 71.125 -6.828125 C 59.882812 -2.273438 45.90625 0 29.1875 0 Z M 29.1875 0 "/></g></g></g></g></g></svg>