<svg xmlns="http://www.w3.org/2000/svg" xmlns:xlink="http://www.w3.org/1999/xlink" width="2000" zoomAndPan="magnify" viewBox="0 0 1500 1499.999933" height="2000" preserveAspectRatio="xMidYMid meet" version="1.0"><path fill="#3998ff" d="M 1499.007812 721.570312 C 1499.007812 733.375 1498.71875 745.171875 1498.140625 756.960938 C 1497.566406 768.75 1496.699219 780.515625 1495.542969 792.261719 C 1494.386719 804.007812 1492.945312 815.71875 1491.214844 827.394531 C 1489.484375 839.070312 1487.46875 850.699219 1485.167969 862.273438 C 1482.863281 873.851562 1480.28125 885.363281 1477.414062 896.816406 C 1474.546875 908.265625 1471.402344 919.636719 1467.976562 930.933594 C 1464.550781 942.226562 1460.851562 953.433594 1456.878906 964.546875 C 1452.902344 975.660156 1448.65625 986.667969 1444.140625 997.574219 C 1439.625 1008.480469 1434.84375 1019.269531 1429.800781 1029.9375 C 1424.753906 1040.609375 1419.449219 1051.148438 1413.886719 1061.558594 C 1408.324219 1071.96875 1402.507812 1082.238281 1396.441406 1092.363281 C 1390.375 1102.484375 1384.0625 1112.457031 1377.507812 1122.269531 C 1370.949219 1132.085938 1364.15625 1141.734375 1357.128906 1151.214844 C 1350.097656 1160.695312 1342.839844 1170 1335.351562 1179.125 C 1327.863281 1188.25 1320.15625 1197.183594 1312.230469 1205.929688 C 1304.304688 1214.675781 1296.171875 1223.222656 1287.824219 1231.570312 C 1279.480469 1239.917969 1270.933594 1248.054688 1262.191406 1255.980469 C 1253.445312 1263.910156 1244.511719 1271.617188 1235.386719 1279.105469 C 1226.265625 1286.59375 1216.960938 1293.855469 1207.484375 1300.886719 C 1198.003906 1307.917969 1188.355469 1314.714844 1178.542969 1321.273438 C 1168.730469 1327.828125 1158.761719 1334.144531 1148.636719 1340.210938 C 1138.511719 1346.28125 1128.246094 1352.097656 1117.839844 1357.664062 C 1107.429688 1363.226562 1096.890625 1368.535156 1086.21875 1373.582031 C 1075.550781 1378.628906 1064.761719 1383.410156 1053.859375 1387.929688 C 1042.953125 1392.445312 1031.945312 1396.695312 1020.832031 1400.671875 C 1009.71875 1404.648438 998.515625 1408.351562 987.222656 1411.777344 C 975.925781 1415.203125 964.554688 1418.351562 953.105469 1421.21875 C 941.65625 1424.089844 930.140625 1426.675781 918.566406 1428.976562 C 906.988281 1431.28125 895.363281 1433.300781 883.6875 1435.03125 C 872.011719 1436.765625 860.300781 1438.210938 848.554688 1439.367188 C 836.808594 1440.523438 825.042969 1441.394531 813.253906 1441.972656 C 801.464844 1442.550781 789.667969 1442.84375 777.863281 1442.84375 C 766.0625 1442.84375 754.265625 1442.554688 742.476562 1441.976562 C 730.6875 1441.398438 718.917969 1440.53125 707.171875 1439.371094 C 695.425781 1438.214844 683.714844 1436.773438 672.039062 1435.042969 C 660.363281 1433.308594 648.738281 1431.292969 637.160156 1428.988281 C 625.585938 1426.6875 614.070312 1424.101562 602.621094 1421.234375 C 591.171875 1418.367188 579.800781 1415.222656 568.503906 1411.792969 C 557.210938 1408.367188 546.007812 1404.667969 534.894531 1400.691406 C 523.78125 1396.714844 512.769531 1392.46875 501.867188 1387.953125 C 490.960938 1383.4375 480.171875 1378.652344 469.503906 1373.609375 C 458.832031 1368.5625 448.292969 1363.257812 437.882812 1357.691406 C 427.472656 1352.128906 417.207031 1346.3125 407.082031 1340.246094 C 396.957031 1334.175781 386.988281 1327.863281 377.175781 1321.304688 C 367.363281 1314.75 357.714844 1307.953125 348.234375 1300.921875 C 338.753906 1293.894531 329.449219 1286.632812 320.328125 1279.144531 C 311.203125 1271.65625 302.269531 1263.949219 293.523438 1256.023438 C 284.777344 1248.097656 276.230469 1239.960938 267.886719 1231.613281 C 259.539062 1223.269531 251.402344 1214.722656 243.476562 1205.976562 C 235.550781 1197.230469 227.84375 1188.296875 220.355469 1179.171875 C 212.867188 1170.046875 205.605469 1160.746094 198.574219 1151.265625 C 191.546875 1141.785156 184.75 1132.136719 178.195312 1122.324219 C 171.636719 1112.507812 165.324219 1102.539062 159.253906 1092.414062 C 153.1875 1082.292969 147.371094 1072.023438 141.808594 1061.613281 C 136.246094 1051.207031 130.9375 1040.664062 125.894531 1029.996094 C 120.847656 1019.324219 116.066406 1008.539062 111.546875 997.632812 C 107.03125 986.726562 102.785156 975.71875 98.808594 964.605469 C 94.832031 953.492188 91.132812 942.289062 87.707031 930.992188 C 84.28125 919.699219 81.132812 908.324219 78.265625 896.875 C 75.398438 885.425781 72.8125 873.914062 70.511719 862.335938 C 68.210938 850.757812 66.191406 839.132812 64.460938 827.457031 C 62.730469 815.78125 61.285156 804.070312 60.128906 792.324219 C 58.972656 780.578125 58.105469 768.8125 57.527344 757.023438 C 56.949219 745.234375 56.660156 733.4375 56.660156 721.632812 C 56.660156 709.832031 56.949219 698.035156 57.53125 686.246094 C 58.109375 674.457031 58.980469 662.6875 60.136719 650.941406 C 61.292969 639.195312 62.738281 627.484375 64.472656 615.808594 C 66.203125 604.132812 68.222656 592.507812 70.527344 580.933594 C 72.828125 569.355469 75.414062 557.84375 78.285156 546.394531 C 81.152344 534.945312 84.300781 523.570312 87.726562 512.277344 C 91.15625 500.984375 94.855469 489.777344 98.835938 478.664062 C 102.8125 467.550781 107.058594 456.542969 111.578125 445.640625 C 116.09375 434.734375 120.875 423.949219 125.925781 413.277344 C 130.972656 402.609375 136.277344 392.070312 141.84375 381.660156 C 147.40625 371.25 153.222656 360.984375 159.292969 350.863281 C 165.363281 340.738281 171.675781 330.769531 178.234375 320.957031 C 184.792969 311.144531 191.585938 301.496094 198.621094 292.015625 C 205.652344 282.535156 212.910156 273.234375 220.402344 264.113281 C 227.890625 254.988281 235.597656 246.054688 243.523438 237.308594 C 251.453125 228.5625 259.589844 220.019531 267.9375 211.671875 C 276.285156 203.328125 284.832031 195.191406 293.578125 187.265625 C 302.324219 179.339844 311.257812 171.636719 320.382812 164.148438 C 329.507812 156.660156 338.8125 149.402344 348.292969 142.371094 C 357.773438 135.34375 367.421875 128.550781 377.238281 121.992188 C 387.050781 115.4375 397.019531 109.125 407.144531 103.058594 C 417.269531 96.992188 427.539062 91.175781 437.949219 85.613281 C 448.359375 80.050781 458.898438 74.746094 469.570312 69.699219 C 480.238281 64.65625 491.027344 59.875 501.933594 55.359375 C 512.839844 50.84375 523.847656 46.597656 534.960938 42.625 C 546.074219 38.648438 557.28125 34.949219 568.574219 31.523438 C 579.871094 28.097656 591.242188 24.953125 602.691406 22.085938 C 614.144531 19.21875 625.65625 16.636719 637.234375 14.335938 C 648.808594 12.035156 660.4375 10.019531 672.113281 8.289062 C 683.789062 6.558594 695.5 5.113281 707.246094 3.960938 C 718.992188 2.804688 730.761719 1.9375 742.550781 1.359375 C 754.339844 0.78125 766.132812 0.496094 777.9375 0.496094 C 789.75 0.453125 801.554688 0.703125 813.355469 1.242188 C 825.15625 1.78125 836.9375 2.613281 848.695312 3.730469 C 860.457031 4.851562 872.179688 6.261719 883.871094 7.960938 C 895.558594 9.660156 907.199219 11.644531 918.792969 13.917969 C 930.382812 16.191406 941.914062 18.75 953.378906 21.589844 C 964.84375 24.433594 976.234375 27.554688 987.542969 30.957031 C 998.855469 34.363281 1010.078125 38.042969 1021.207031 42 C 1032.339844 45.957031 1043.363281 50.183594 1054.285156 54.6875 C 1065.207031 59.1875 1076.011719 63.953125 1086.699219 68.988281 C 1097.382812 74.019531 1107.941406 79.316406 1118.363281 84.871094 C 1128.789062 90.421875 1139.074219 96.230469 1149.210938 102.292969 C 1159.351562 108.355469 1169.332031 114.660156 1179.160156 121.214844 C 1188.988281 127.769531 1198.648438 134.5625 1208.140625 141.59375 C 1217.636719 148.621094 1226.949219 155.882812 1236.082031 163.371094 C 1245.21875 170.863281 1254.164062 178.570312 1262.917969 186.503906 C 1271.671875 194.433594 1280.226562 202.574219 1288.578125 210.929688 C 1296.929688 219.28125 1305.070312 227.835938 1313.003906 236.589844 C 1320.933594 245.34375 1328.644531 254.289062 1336.132812 263.421875 C 1343.625 272.558594 1350.882812 281.871094 1357.914062 291.363281 C 1364.945312 300.855469 1371.734375 310.515625 1378.289062 320.34375 C 1384.84375 330.171875 1391.152344 340.15625 1397.210938 350.296875 C 1403.273438 360.433594 1409.082031 370.714844 1414.636719 381.140625 C 1420.191406 391.566406 1425.484375 402.125 1430.519531 412.808594 C 1435.550781 423.496094 1440.316406 434.300781 1444.820312 445.222656 C 1449.320312 456.144531 1453.546875 467.167969 1457.503906 478.300781 C 1461.460938 489.429688 1465.140625 500.652344 1468.546875 511.960938 C 1471.949219 523.273438 1475.070312 534.664062 1477.914062 546.128906 C 1480.753906 557.59375 1483.3125 569.125 1485.585938 580.714844 C 1487.859375 592.308594 1489.84375 603.949219 1491.542969 615.636719 C 1493.242188 627.328125 1494.652344 639.050781 1495.769531 650.8125 C 1496.890625 662.570312 1497.722656 674.351562 1498.261719 686.152344 C 1498.800781 697.953125 1499.050781 709.757812 1499.007812 721.570312 Z M 1499.007812 721.570312 " fill-opacity="1" fill-rule="nonzero"/><path fill="#ffffff" d="M 1334.191406 1180.679688 C 1325.675781 1190.996094 1316.882812 1201.066406 1307.808594 1210.894531 C 1298.734375 1220.722656 1289.394531 1230.289062 1279.785156 1239.597656 C 1270.179688 1248.902344 1260.324219 1257.9375 1250.214844 1266.695312 C 1240.105469 1275.453125 1229.761719 1283.925781 1219.179688 1292.109375 C 1208.601562 1300.289062 1197.800781 1308.171875 1186.78125 1315.757812 C 1175.761719 1323.339844 1164.542969 1330.609375 1153.117188 1337.566406 C 1141.695312 1344.523438 1130.089844 1351.160156 1118.296875 1357.472656 C 1106.503906 1363.785156 1094.542969 1369.765625 1082.417969 1375.414062 C 1070.292969 1381.058594 1058.023438 1386.367188 1045.601562 1391.332031 C 1033.183594 1396.292969 1020.632812 1400.910156 1007.957031 1405.175781 C 995.277344 1409.441406 982.492188 1413.351562 969.597656 1416.910156 C 956.703125 1420.464844 943.722656 1423.65625 930.648438 1426.488281 C 917.578125 1429.324219 904.4375 1431.789062 891.226562 1433.890625 C 878.015625 1435.992188 864.757812 1437.726562 851.453125 1439.089844 C 838.148438 1440.453125 824.8125 1441.449219 811.453125 1442.070312 C 798.09375 1442.691406 784.722656 1442.941406 771.347656 1442.820312 C 757.972656 1442.699219 744.613281 1442.207031 731.265625 1441.34375 C 717.917969 1440.480469 704.605469 1439.242188 691.324219 1437.636719 C 678.046875 1436.035156 664.824219 1434.058594 651.652344 1431.71875 C 638.484375 1429.378906 625.390625 1426.671875 612.371094 1423.605469 C 599.351562 1420.535156 586.429688 1417.105469 573.601562 1413.316406 C 560.773438 1409.527344 548.0625 1405.386719 535.464844 1400.890625 C 522.867188 1396.394531 510.402344 1391.554688 498.074219 1386.363281 C 485.746094 1381.175781 473.574219 1375.648438 461.550781 1369.78125 C 449.53125 1363.917969 437.683594 1357.71875 426.007812 1351.195312 C 414.332031 1344.671875 402.847656 1337.824219 391.550781 1330.660156 C 380.257812 1323.496094 369.167969 1316.023438 358.289062 1308.242188 C 347.410156 1300.460938 336.753906 1292.386719 326.324219 1284.011719 C 315.894531 1275.636719 305.707031 1266.980469 295.757812 1258.039062 C 285.808594 1249.097656 276.117188 1239.886719 266.679688 1230.410156 C 257.246094 1220.929688 248.078125 1211.195312 239.183594 1201.203125 C 230.289062 1191.214844 221.679688 1180.984375 213.355469 1170.515625 C 290.175781 1060.972656 409.269531 984.964844 659.675781 982.117188 C 948.671875 978.636719 1161.257812 968.097656 1249.054688 1065.242188 C 1281.019531 1101.078125 1309.398438 1139.558594 1334.191406 1180.679688 Z M 1334.191406 1180.679688 " fill-opacity="1" fill-rule="nonzero"/><path fill="#14213d" d="M 539.007812 539.722656 C 400.347656 489.5625 422.960938 306.660156 442.632812 302.730469 C 462.304688 298.796875 504.558594 331.242188 506.539062 332.226562 C 508.523438 333.210938 496.71875 250.605469 523.273438 212.257812 C 549.832031 173.90625 651.113281 251.589844 728.800781 252.574219 C 806.492188 253.558594 994.320312 258.472656 1049.378906 307.644531 C 1104.4375 356.8125 1075.859375 462.039062 1075.859375 462.039062 C 1075.859375 462.039062 1138.867188 478.753906 1126.058594 567.261719 C 1113.25 655.769531 1013.953125 731.773438 978.546875 795.546875 C 943.144531 859.320312 732.867188 871.128906 700.25 778.6875 " fill-opacity="1" fill-rule="nonzero"/><path fill="#ffb5a6" d="M 767.394531 1088.703125 C 666.589844 1088.703125 651.753906 1004.5625 651.351562 990.339844 C 651.351562 988.710938 651.148438 985.863281 651.351562 982.003906 C 651.148438 974.082031 651.148438 961.882812 651.148438 947.660156 C 651.554688 909.246094 651.957031 856.207031 651.351562 833.4375 L 843.8125 764.542969 L 878.765625 751.941406 L 917.589844 738.121094 C 917.589844 738.121094 917.386719 745.640625 916.976562 758.042969 C 916.773438 765.152344 916.570312 773.890625 916.367188 783.851562 C 916.394531 785.015625 916.328125 786.175781 916.164062 787.332031 C 915.964844 801.746094 915.761719 818.21875 915.351562 835.496094 C 914.742188 889.761719 914.539062 950.730469 917.386719 972.671875 C 922.648438 1015.339844 868.179688 1088.703125 767.394531 1088.703125 Z M 767.394531 1088.703125 " fill-opacity="1" fill-rule="nonzero"/><path fill="#e86b70" d="M 917.769531 784.257812 C 917.308594 785.320312 916.765625 786.335938 916.144531 787.304688 C 847.859375 927.742188 745.222656 983.429688 651.332031 982.003906 C 651.128906 974.082031 651.128906 961.882812 651.128906 947.660156 C 651.535156 909.246094 651.9375 856.207031 651.332031 833.4375 L 843.792969 764.542969 L 916.355469 783.851562 Z M 917.769531 784.257812 " fill-opacity="1" fill-rule="nonzero"/><path fill="#ffb5a6" d="M 535.1875 414.832031 C 647.296875 549.230469 924.171875 524.976562 924.171875 524.976562 C 924.171875 524.976562 929.414062 682.316406 956.949219 681.003906 C 984.484375 679.691406 989.074219 592.5 1056.601562 606.949219 C 1124.125 621.398438 1082.167969 751.832031 1029.722656 759.035156 C 977.277344 766.238281 964.160156 721.664062 964.160156 721.664062 C 964.160156 721.664062 867.460938 913.429688 714.050781 913.429688 C 560.640625 913.429688 521.371094 766.355469 522.292969 686.246094 C 523.210938 606.136719 535.1875 414.832031 535.1875 414.832031 Z M 535.1875 414.832031 " fill-opacity="1" fill-rule="nonzero"/><path fill="#3998ff" d="M 1499.007812 721.570312 C 1499.007812 733.375 1498.71875 745.171875 1498.140625 756.960938 C 1497.566406 768.75 1496.699219 780.515625 1495.542969 792.261719 C 1494.386719 804.007812 1492.945312 815.71875 1491.214844 827.394531 C 1489.484375 839.070312 1487.46875 850.699219 1485.167969 862.273438 C 1482.863281 873.851562 1480.28125 885.363281 1477.414062 896.816406 C 1474.546875 908.265625 1471.402344 919.636719 1467.976562 930.933594 C 1464.550781 942.226562 1460.851562 953.433594 1456.878906 964.546875 C 1452.902344 975.660156 1448.65625 986.667969 1444.140625 997.574219 C 1439.625 1008.480469 1434.84375 1019.269531 1429.800781 1029.9375 C 1424.753906 1040.609375 1419.449219 1051.148438 1413.886719 1061.558594 C 1408.324219 1071.96875 1402.507812 1082.238281 1396.441406 1092.363281 C 1390.375 1102.484375 1384.0625 1112.457031 1377.507812 1122.269531 C 1370.949219 1132.085938 1364.15625 1141.734375 1357.128906 1151.214844 C 1350.097656 1160.695312 1342.839844 1170 1335.351562 1179.125 C 1327.863281 1188.25 1320.15625 1197.183594 1312.230469 1205.929688 C 1304.304688 1214.675781 1296.171875 1223.222656 1287.824219 1231.570312 C 1279.480469 1239.917969 1270.933594 1248.054688 1262.191406 1255.980469 C 1253.445312 1263.910156 1244.511719 1271.617188 1235.386719 1279.105469 C 1226.265625 1286.59375 1216.960938 1293.855469 1207.484375 1300.886719 C 1198.003906 1307.917969 1188.355469 1314.714844 1178.542969 1321.273438 C 1168.730469 1327.828125 1158.761719 1334.144531 1148.636719 1340.210938 C 1138.511719 1346.28125 1128.246094 1352.097656 1117.839844 1357.664062 C 1107.429688 1363.226562 1096.890625 1368.535156 1086.21875 1373.582031 C 1075.550781 1378.628906 1064.761719 1383.410156 1053.859375 1387.929688 C 1042.953125 1392.445312 1031.945312 1396.695312 1020.832031 1400.671875 C 1009.71875 1404.648438 998.515625 1408.351562 987.222656 1411.777344 C 975.925781 1415.203125 964.554688 1418.351562 953.105469 1421.21875 C 941.65625 1424.089844 930.140625 1426.675781 918.566406 1428.976562 C 906.988281 1431.28125 895.363281 1433.300781 883.6875 1435.03125 C 872.011719 1436.765625 860.300781 1438.210938 848.554688 1439.367188 C 836.808594 1440.523438 825.042969 1441.394531 813.253906 1441.972656 C 801.464844 1442.550781 789.667969 1442.84375 777.863281 1442.84375 C 766.0625 1442.84375 754.265625 1442.554688 742.476562 1441.976562 C 730.6875 1441.398438 718.917969 1440.53125 707.171875 1439.371094 C 695.425781 1438.214844 683.714844 1436.773438 672.039062 1435.042969 C 660.363281 1433.308594 648.738281 1431.292969 637.160156 1428.988281 C 625.585938 1426.6875 614.070312 1424.101562 602.621094 1421.234375 C 591.171875 1418.367188 579.800781 1415.222656 568.503906 1411.792969 C 557.210938 1408.367188 546.007812 1404.667969 534.894531 1400.691406 C 523.78125 1396.714844 512.769531 1392.46875 501.867188 1387.953125 C 490.960938 1383.4375 480.171875 1378.652344 469.503906 1373.609375 C 458.832031 1368.5625 448.292969 1363.257812 437.882812 1357.691406 C 427.472656 1352.128906 417.207031 1346.3125 407.082031 1340.246094 C 396.957031 1334.175781 386.988281 1327.863281 377.175781 1321.304688 C 367.363281 1314.75 357.714844 1307.953125 348.234375 1300.921875 C 338.753906 1293.894531 329.449219 1286.632812 320.328125 1279.144531 C 311.203125 1271.65625 302.269531 1263.949219 293.523438 1256.023438 C 284.777344 1248.097656 276.230469 1239.960938 267.886719 1231.613281 C 259.539062 1223.269531 251.402344 1214.722656 243.476562 1205.976562 C 235.550781 1197.230469 227.84375 1188.296875 220.355469 1179.171875 C 212.867188 1170.046875 205.605469 1160.746094 198.574219 1151.265625 C 191.546875 1141.785156 184.75 1132.136719 178.195312 1122.324219 C 171.636719 1112.507812 165.324219 1102.539062 159.253906 1092.414062 C 153.1875 1082.292969 147.371094 1072.023438 141.808594 1061.613281 C 136.246094 1051.207031 130.9375 1040.664062 125.894531 1029.996094 C 120.847656 1019.324219 116.066406 1008.539062 111.546875 997.632812 C 107.03125 986.726562 102.785156 975.71875 98.808594 964.605469 C 94.832031 953.492188 91.132812 942.289062 87.707031 930.992188 C 84.28125 919.699219 81.132812 908.324219 78.265625 896.875 C 75.398438 885.425781 72.8125 873.914062 70.511719 862.335938 C 68.210938 850.757812 66.191406 839.132812 64.460938 827.457031 C 62.730469 815.78125 61.285156 804.070312 60.128906 792.324219 C 58.972656 780.578125 58.105469 768.8125 57.527344 757.023438 C 56.949219 745.234375 56.660156 733.4375 56.660156 721.632812 C 56.660156 709.832031 56.949219 698.035156 57.53125 686.246094 C 58.109375 674.457031 58.980469 662.6875 60.136719 650.941406 C 61.292969 639.195312 62.738281 627.484375 64.472656 615.808594 C 66.203125 604.132812 68.222656 592.507812 70.527344 580.933594 C 72.828125 569.355469 75.414062 557.84375 78.285156 546.394531 C 81.152344 534.945312 84.300781 523.570312 87.726562 512.277344 C 91.15625 500.984375 94.855469 489.777344 98.835938 478.664062 C 102.8125 467.550781 107.058594 456.542969 111.578125 445.640625 C 116.09375 434.734375 120.875 423.949219 125.925781 413.277344 C 130.972656 402.609375 136.277344 392.070312 141.84375 381.660156 C 147.40625 371.25 153.222656 360.984375 159.292969 350.863281 C 165.363281 340.738281 171.675781 330.769531 178.234375 320.957031 C 184.792969 311.144531 191.585938 301.496094 198.621094 292.015625 C 205.652344 282.535156 212.910156 273.234375 220.402344 264.113281 C 227.890625 254.988281 235.597656 246.054688 243.523438 237.308594 C 251.453125 228.5625 259.589844 220.019531 267.9375 211.671875 C 276.285156 203.328125 284.832031 195.191406 293.578125 187.265625 C 302.324219 179.339844 311.257812 171.636719 320.382812 164.148438 C 329.507812 156.660156 338.8125 149.402344 348.292969 142.371094 C 357.773438 135.34375 367.421875 128.550781 377.238281 121.992188 C 387.050781 115.4375 397.019531 109.125 407.144531 103.058594 C 417.269531 96.992188 427.539062 91.175781 437.949219 85.613281 C 448.359375 80.050781 458.898438 74.746094 469.570312 69.699219 C 480.238281 64.65625 491.027344 59.875 501.933594 55.359375 C 512.839844 50.84375 523.847656 46.597656 534.960938 42.625 C 546.074219 38.648438 557.28125 34.949219 568.574219 31.523438 C 579.871094 28.097656 591.242188 24.953125 602.691406 22.085938 C 614.144531 19.21875 625.65625 16.636719 637.234375 14.335938 C 648.808594 12.035156 660.4375 10.019531 672.113281 8.289062 C 683.789062 6.558594 695.5 5.113281 707.246094 3.960938 C 718.992188 2.804688 730.761719 1.9375 742.550781 1.359375 C 754.339844 0.78125 766.132812 0.496094 777.9375 0.496094 C 789.75 0.453125 801.554688 0.703125 813.355469 1.242188 C 825.15625 1.78125 836.9375 2.613281 848.695312 3.730469 C 860.457031 4.851562 872.179688 6.261719 883.871094 7.960938 C 895.558594 9.660156 907.199219 11.644531 918.792969 13.917969 C 930.382812 16.191406 941.914062 18.75 953.378906 21.589844 C 964.84375 24.433594 976.234375 27.554688 987.542969 30.957031 C 998.855469 34.363281 1010.078125 38.042969 1021.207031 42 C 1032.339844 45.957031 1043.363281 50.183594 1054.285156 54.6875 C 1065.207031 59.1875 1076.011719 63.953125 1086.699219 68.988281 C 1097.382812 74.019531 1107.941406 79.316406 1118.363281 84.871094 C 1128.789062 90.421875 1139.074219 96.230469 1149.210938 102.292969 C 1159.351562 108.355469 1169.332031 114.660156 1179.160156 121.214844 C 1188.988281 127.769531 1198.648438 134.5625 1208.140625 141.59375 C 1217.636719 148.621094 1226.949219 155.882812 1236.082031 163.371094 C 1245.21875 170.863281 1254.164062 178.570312 1262.917969 186.503906 C 1271.671875 194.433594 1280.226562 202.574219 1288.578125 210.929688 C 1296.929688 219.28125 1305.070312 227.835938 1313.003906 236.589844 C 1320.933594 245.34375 1328.644531 254.289062 1336.132812 263.421875 C 1343.625 272.558594 1350.882812 281.871094 1357.914062 291.363281 C 1364.945312 300.855469 1371.734375 310.515625 1378.289062 320.34375 C 1384.84375 330.171875 1391.152344 340.15625 1397.210938 350.296875 C 1403.273438 360.433594 1409.082031 370.714844 1414.636719 381.140625 C 1420.191406 391.566406 1425.484375 402.125 1430.519531 412.808594 C 1435.550781 423.496094 1440.316406 434.300781 1444.820312 445.222656 C 1449.320312 456.144531 1453.546875 467.167969 1457.503906 478.300781 C 1461.460938 489.429688 1465.140625 500.652344 1468.546875 511.960938 C 1471.949219 523.273438 1475.070312 534.664062 1477.914062 546.128906 C 1480.753906 557.59375 1483.3125 569.125 1485.585938 580.714844 C 1487.859375 592.308594 1489.84375 603.949219 1491.542969 615.636719 C 1493.242188 627.328125 1494.652344 639.050781 1495.769531 650.8125 C 1496.890625 662.570312 1497.722656 674.351562 1498.261719 686.152344 C 1498.800781 697.953125 1499.050781 709.757812 1499.007812 721.570312 Z M 1499.007812 721.570312 " fill-opacity="1" fill-rule="nonzero"/><path fill="#ffffff" d="M 1334.191406 1180.679688 C 1325.675781 1190.996094 1316.882812 1201.066406 1307.808594 1210.894531 C 1298.734375 1220.722656 1289.394531 1230.289062 1279.785156 1239.597656 C 1270.179688 1248.902344 1260.324219 1257.9375 1250.214844 1266.695312 C 1240.105469 1275.453125 1229.761719 1283.925781 1219.179688 1292.109375 C 1208.601562 1300.289062 1197.800781 1308.171875 1186.78125 1315.757812 C 1175.761719 1323.339844 1164.542969 1330.609375 1153.117188 1337.566406 C 1141.695312 1344.523438 1130.089844 1351.160156 1118.296875 1357.472656 C 1106.503906 1363.785156 1094.542969 1369.765625 1082.417969 1375.414062 C 1070.292969 1381.058594 1058.023438 1386.367188 1045.601562 1391.332031 C 1033.183594 1396.292969 1020.632812 1400.910156 1007.957031 1405.175781 C 995.277344 1409.441406 982.492188 1413.351562 969.597656 1416.910156 C 956.703125 1420.464844 943.722656 1423.65625 930.648438 1426.488281 C 917.578125 1429.324219 904.4375 1431.789062 891.226562 1433.890625 C 878.015625 1435.992188 864.757812 1437.726562 851.453125 1439.089844 C 838.148438 1440.453125 824.8125 1441.449219 811.453125 1442.070312 C 798.09375 1442.691406 784.722656 1442.941406 771.347656 1442.820312 C 757.972656 1442.699219 744.613281 1442.207031 731.265625 1441.34375 C 717.917969 1440.480469 704.605469 1439.242188 691.324219 1437.636719 C 678.046875 1436.035156 664.824219 1434.058594 651.652344 1431.71875 C 638.484375 1429.378906 625.390625 1426.671875 612.371094 1423.605469 C 599.351562 1420.535156 586.429688 1417.105469 573.601562 1413.316406 C 560.773438 1409.527344 548.0625 1405.386719 535.464844 1400.890625 C 522.867188 1396.394531 510.402344 1391.554688 498.074219 1386.363281 C 485.746094 1381.175781 473.574219 1375.648438 461.550781 1369.78125 C 449.53125 1363.917969 437.683594 1357.71875 426.007812 1351.195312 C 414.332031 1344.671875 402.847656 1337.824219 391.550781 1330.660156 C 380.257812 1323.496094 369.167969 1316.023438 358.289062 1308.242188 C 347.410156 1300.460938 336.753906 1292.386719 326.324219 1284.011719 C 315.894531 1275.636719 305.707031 1266.980469 295.757812 1258.039062 C 285.808594 1249.097656 276.117188 1239.886719 266.679688 1230.410156 C 257.246094 1220.929688 248.078125 1211.195312 239.183594 1201.203125 C 230.289062 1191.214844 221.679688 1180.984375 213.355469 1170.515625 C 290.175781 1060.972656 409.269531 984.964844 659.675781 982.117188 C 948.671875 978.636719 1161.257812 968.097656 1249.054688 1065.242188 C 1281.019531 1101.078125 1309.398438 1139.558594 1334.191406 1180.679688 Z M 1334.191406 1180.679688 " fill-opacity="1" fill-rule="nonzero"/><path fill="#14213d" d="M 539.007812 539.722656 C 400.347656 489.5625 422.960938 306.660156 442.632812 302.730469 C 462.304688 298.796875 504.558594 331.242188 506.539062 332.226562 C 508.523438 333.210938 496.71875 250.605469 523.273438 212.257812 C 549.832031 173.90625 651.113281 251.589844 728.800781 252.574219 C 806.492188 253.558594 994.320312 258.472656 1049.378906 307.644531 C 1104.4375 356.8125 1075.859375 462.039062 1075.859375 462.039062 C 1075.859375 462.039062 1138.867188 478.753906 1126.058594 567.261719 C 1113.25 655.769531 1013.953125 731.773438 978.546875 795.546875 C 943.144531 859.320312 732.867188 871.128906 700.25 778.6875 " fill-opacity="1" fill-rule="nonzero"/><path fill="#ffb5a6" d="M 767.394531 1088.703125 C 666.589844 1088.703125 651.753906 1004.5625 651.351562 990.339844 C 651.351562 988.710938 651.148438 985.863281 651.351562 982.003906 C 651.148438 974.082031 651.148438 961.882812 651.148438 947.660156 C 651.554688 909.246094 651.957031 856.207031 651.351562 833.4375 L 843.8125 764.542969 L 878.765625 751.941406 L 917.589844 738.121094 C 917.589844 738.121094 917.386719 745.640625 916.976562 758.042969 C 916.773438 765.152344 916.570312 773.890625 916.367188 783.851562 C 916.394531 785.015625 916.328125 786.175781 916.164062 787.332031 C 915.964844 801.746094 915.761719 818.21875 915.351562 835.496094 C 914.742188 889.761719 914.539062 950.730469 917.386719 972.671875 C 922.648438 1015.339844 868.179688 1088.703125 767.394531 1088.703125 Z M 767.394531 1088.703125 " fill-opacity="1" fill-rule="nonzero"/><path fill="#e86b70" d="M 917.769531 784.257812 C 917.308594 785.320312 916.765625 786.335938 916.144531 787.304688 C 847.859375 927.742188 745.222656 983.429688 651.332031 982.003906 C 651.128906 974.082031 651.128906 961.882812 651.128906 947.660156 C 651.535156 909.246094 651.9375 856.207031 651.332031 833.4375 L 843.792969 764.542969 L 916.355469 783.851562 Z M 917.769531 784.257812 " fill-opacity="1" fill-rule="nonzero"/><path fill="#ffb5a6" d="M 535.1875 414.832031 C 647.296875 549.230469 924.171875 524.976562 924.171875 524.976562 C 924.171875 524.976562 929.414062 682.316406 956.949219 681.003906 C 984.484375 679.691406 989.074219 592.5 1056.601562 606.949219 C 1124.125 621.398438 1082.167969 751.832031 1029.722656 759.035156 C 977.277344 766.238281 964.160156 721.664062 964.160156 721.664062 C 964.160156 721.664062 867.460938 913.429688 714.050781 913.429688 C 560.640625 913.429688 521.371094 766.355469 522.292969 686.246094 C 523.210938 606.136719 535.1875 414.832031 535.1875 414.832031 Z M 535.1875 414.832031 " fill-opacity="1" fill-rule="nonzero"/></svg>