<svg xmlns="http://www.w3.org/2000/svg" xmlns:xlink="http://www.w3.org/1999/xlink" width="2000" zoomAndPan="magnify" viewBox="0 0 1500 1499.999933" height="2000" preserveAspectRatio="xMidYMid meet" version="1.0"><defs><g/></defs><rect x="-150" width="1800" fill="#ffffff" y="-149.999993" height="1799.99992" fill-opacity="1"/><rect x="-150" width="1800" fill="#0a1322" y="-149.999993" height="1799.99992" fill-opacity="1"/><g fill="#0ea5e8" fill-opacity="1"><g transform="translate(-46.402028, 1263.415978)"><g><path d="M 208.015625 0 L 0 0 L 0 -318.53125 L 208.015625 -318.53125 Z M 208.015625 0 "/></g></g></g><g fill="#0ea5e8" fill-opacity="1"><g transform="translate(135.614316, 1263.415978)"><g><path d="M 208.015625 0 L 0 0 L 0 -318.53125 L 208.015625 -318.53125 Z M 208.015625 0 "/></g></g></g><g fill="#0ea5e8" fill-opacity="1"><g transform="translate(317.630473, 1263.415978)"><g><path d="M 208.015625 0 L 0 0 L 0 -318.53125 L 208.015625 -318.53125 Z M 208.015625 0 "/></g></g></g><g fill="#0ea5e8" fill-opacity="1"><g transform="translate(499.646817, 1263.415978)"><g><path d="M 226.21875 -858.078125 C 185.476562 -858.078125 149.289062 -869.128906 117.65625 -891.234375 C 86.019531 -913.335938 70.203125 -948.222656 70.203125 -995.890625 C 70.203125 -1038.367188 85.15625 -1071.957031 115.0625 -1096.65625 C 144.96875 -1121.351562 182.019531 -1133.703125 226.21875 -1133.703125 C 270.425781 -1133.703125 307.476562 -1121.351562 337.375 -1096.65625 C 367.28125 -1071.957031 382.234375 -1038.367188 382.234375 -995.890625 C 382.234375 -948.222656 366.414062 -913.335938 334.78125 -891.234375 C 303.144531 -869.128906 266.957031 -858.078125 226.21875 -858.078125 Z M 616.265625 -858.078125 C 575.523438 -858.078125 539.335938 -869.128906 507.703125 -891.234375 C 476.066406 -913.335938 460.25 -948.222656 460.25 -995.890625 C 460.25 -1038.367188 475.195312 -1071.957031 505.09375 -1096.65625 C 535 -1121.351562 572.054688 -1133.703125 616.265625 -1133.703125 C 661.328125 -1133.703125 698.59375 -1121.351562 728.0625 -1096.65625 C 757.539062 -1071.957031 772.28125 -1038.367188 772.28125 -995.890625 C 772.28125 -948.222656 756.457031 -913.335938 724.8125 -891.234375 C 693.175781 -869.128906 656.992188 -858.078125 616.265625 -858.078125 Z M 579.859375 0 L 0 0 L 0 -318.53125 L 261.328125 -318.53125 L 261.328125 -780.078125 L 579.859375 -780.078125 Z M 579.859375 0 "/></g></g></g></svg>